# xmcd
#
# Track frame offsets:
#	183
#	12310
#	22598
#	34223
#	44220
#	58305
#	77913
#	89920
#	102758
#	116830
#	127338
#	138210
#	150793
#	162730
#	172645
#	187588
#	198890
#	208618
#	218860
#	230085
#	238193
#	248788
#	261705
#	275910
#	287303
#	299508
#
# Disc length: 4189 seconds
#
# Revision: 3
# Processed by: cddbd v1.5.2PL0 Copyright (c) Steve Scherf et al.
# Submitted via: VUPlayer 2.49
#
DISCID=89105b1a
DTITLE=Various Artist - 50 Golden Country Hits CD-1
DYEAR=1988
DGENRE=Country
TTITLE0=Hank Williams - Your Cheating Heart
TTITLE1=Jim Reeves - Am I Losing You
TTITLE2=Don Gibson - Oh Lonesome Me
TTITLE3=Patsy Cline - Seven Lonely Days
TTITLE4=Johnny Horton - Comanche =The Brave Horse=
TTITLE5=Marty Robbins - El Paso
TTITLE6=Kenny Rogers - Elvira
TTITLE7=Hank Snow - I Love You Because
TTITLE8=Slim Whitman - Indian Love Call
TTITLE9=Willie Nelson - Blame it On the Time
TTITLE10=Elvis Presley - Have I Told You Lately That I Love You
TTITLE11=Johnny Cash - Folsom Prison Blues
TTITLE12=Frankie Lane - High Noon =Do Not Forsake Me=
TTITLE13=Conway Twitty - It's Only Make Believe
TTITLE14=Willie Nelson - Face of A Fighter
TTITLE15=Jim Reeves - Adios Amigo
TTITLE16=Patsy Cline - Heartaches
TTITLE17=Don Gibson - Lonesome Number One
TTITLE18=Hank Snow - Mansion On the Hill
TTITLE19=Johnny Cash - Guess Things Happen That Way
TTITLE20=Slim Whitman - Rose Marie
TTITLE21=Hank Williams - Jambalaya =On the Bayou=
TTITLE22=Kenny Rogers - Sunshine
TTITLE23=Johnny Horton - The Battle of New Orleans
TTITLE24=Patsy Cline - Crazy
TTITLE25=Gene Autry - Tumbling Tumbleweeds
EXTD=
EXTT0=
EXTT1=
EXTT2=
EXTT3=
EXTT4=
EXTT5=
EXTT6=
EXTT7=
EXTT8=
EXTT9=
EXTT10=
EXTT11=
EXTT12=
EXTT13=
EXTT14=
EXTT15=
EXTT16=
EXTT17=
EXTT18=
EXTT19=
EXTT20=
EXTT21=
EXTT22=
EXTT23=
EXTT24=
EXTT25=
PLAYORDER=
